# xmcd
# 
# Track frame offsets:
#     187
#     15850
#     42100
#     75300
#     102687
#     124912
#     139075
#     173450
#     204600
#     228175
#     247062
#     298487
#     326187
# 
# Disc length: 4667
# 
# Revision: 3
# Processed by: cddbd v1.5.2PL0 Copyright (c) Steve Scherf et al.
# Submitted via: fre:ac v1.0.31
# 
DISCID=b412390d
DTITLE=Various Artist - ポートレイト・イン・ジャズ-和田誠・村上春樹セレクション
DYEAR=1998
DGENRE=Jazz
TTITLE0=チャーリー・パーカー - チャーリー・パーカー/ブルームディド
TTITLE1=ﾊｰﾌﾞ･ｹﾞﾗｰ - ハーブ・ゲラー/ジターバッグ・ワルツ
TTITLE2=ｱｰﾄ･ﾌﾞﾚｰｷｰ - アート・ブレイキー/危険な関係のブルース
TTITLE3=ｽﾀﾝｹﾞｯﾂ - スタン・ゲッツ/ムーブ
TTITLE4=ﾋﾞﾙ･ｴﾊﾞﾝｽ - ビル・エバンス/マイ・フーリッシュ・ハート
TTITLE5=ﾁﾞｭｰｸ･ｴﾘﾝﾄﾝ - デューク・エリントン/ロックス・イン・マイ・ベッド
TTITLE6=ｴﾗ･ﾌｨｯﾂｼﾞｪﾗﾙﾄﾞ - エラ・フィッツジェラルド/ジーズ・フーリッシュ・シングス
TTITLE7=ｴﾘｯｸ･ﾄﾞﾙﾌｨｰ - エリック・ドルフィー/アウト・ゼア
TTITLE8=ｶｳﾝﾄ･ﾍﾞｲｼｰ - カウント・ベイシー/シャイニー・ストッキングス
TTITLE9=ﾅｯﾄ･ｷﾝｸﾞ･ｺｰﾙ - ナット・キング・コール/サムタイムズ・アイム・ハッピー
TTITLE10=ﾃﾞｨｼﾞｰ･ｶﾞﾚｽﾋﾟｰ - ディジー・ガレスピー/ディジーズ・ブルース
TTITLE11=ｾﾛﾆｱｽ･ﾓﾝｸ - セロニアス・モンク/ジャッキイング
TTITLE12=ﾚｽﾀｰ･ﾔﾝｸﾞ - レスター・ヤング/ルイーズ
EXTD=
EXTT0=
EXTT1=
EXTT2=
EXTT3=
EXTT4=
EXTT5=
EXTT6=
EXTT7=
EXTT8=
EXTT9=
EXTT10=
EXTT11=
EXTT12=
PLAYORDER=
